#N canvas 29 112 887 309 10;
#X obj 319 227 hsl 70 14 1 1000 0 0 4896_time 4896_timein time -2 -8
1 9 -262144 -1 -1 5500 1;
#X obj 319 199 hsl 70 14 0 1 0 0 4896_echovol 4896_echovolin echo_volume
-2 -8 1 9 -262144 -1 -1 6250 1;
#X obj 320 170 hsl 70 14 0.25 0.75 0 0 4896_pan 4896_panin panning
-2 -8 1 9 -262144 -1 -1 3450 1;
#X obj 11 217 *~ 0.5;
#X obj 513 227 *~ 0.5;
#X obj 98 181 -;
#X msg 113 162 1;
#X obj 98 200 * -1;
#X obj 113 143 loadbang;
#X obj 11 268 *~;
#X obj 513 265 *~;
#X obj 343 25 inlet~;
#X obj 11 288 outlet~;
#X obj 513 284 outlet~;
#X msg 564 41 0.5;
#X obj 554 18 loadbang;
#X msg 554 79 250;
#X obj 254 267 delwrite~ \$0-delayL 1000;
#X obj 727 244 delwrite~ \$0-delayR 1000;
#X obj 527 204 vd~ \$0-delayL;
#X obj 11 178 vd~ \$0-delayR;
#X obj 26 249 r 4896_echovol;
#X obj 528 246 r 4896_echovol;
#X obj 98 124 r 4896_pan;
#X obj 513 185 r 4896_pan;
#X obj 669 54 s 4896_panin;
#X obj 564 60 s 4896_echovolin;
#X msg 669 35 0.5;
#X floatatom 392 170 5 0 0 0 - - -, f 5;
#X floatatom 391 199 5 0 0 0 - - -, f 5;
#X floatatom 391 227 5 0 0 0 - - -, f 5;
#X obj 466 160 vsl 15 60 0 1 0 0 rfbk empty Rfbk 0 -9 1 9 -262144 -1
-1 5600 1;
#X obj 579 227 *~ 0.5;
#X obj 429 160 vsl 15 60 0 1 0 0 lfbk empty Lfbk 0 -9 1 9 -262144 -1
-1 5700 1;
#X obj 129 206 r lfbk;
#X obj 612 208 r rfbk;
#X obj 96 226 *~ 0.5;
#X floatatom 429 227 5 0 0 0 - - -, f 5;
#X floatatom 466 227 5 0 0 0 - - -, f 5;
#X obj 491 72 vline~;
#X obj 491 34 inlet;
#X msg 491 53 \$1 80;
#X connect 0 0 30 0;
#X connect 1 0 29 0;
#X connect 2 0 28 0;
#X connect 3 0 9 0;
#X connect 4 0 10 0;
#X connect 5 0 7 0;
#X connect 6 0 5 1;
#X connect 7 0 3 1;
#X connect 8 0 6 0;
#X connect 9 0 12 0;
#X connect 10 0 13 0;
#X connect 11 0 17 0;
#X connect 11 0 18 0;
#X connect 14 0 26 0;
#X connect 15 0 14 0;
#X connect 15 0 16 0;
#X connect 15 0 27 0;
#X connect 19 0 4 0;
#X connect 19 0 32 0;
#X connect 20 0 3 0;
#X connect 20 0 36 0;
#X connect 21 0 9 1;
#X connect 22 0 10 1;
#X connect 23 0 5 0;
#X connect 24 0 4 0;
#X connect 27 0 25 0;
#X connect 31 0 38 0;
#X connect 32 0 18 0;
#X connect 33 0 37 0;
#X connect 34 0 36 1;
#X connect 35 0 32 1;
#X connect 36 0 17 0;
#X connect 39 0 19 0;
#X connect 39 0 20 0;
#X connect 40 0 41 0;
#X connect 41 0 39 0;
#X coords 100 -1 150 1 190 110 1 311 140;
