#N canvas 0 22 120 222 10;
#X obj 5 5 midirealtimein;
#X floatatom 5 24 5 0 0 0 - - -, f 5;
#X obj 5 40 == 248;
#X obj 5 59 t b b;
#X obj 31 78 del 500;
#X msg 31 97 0;
#X obj 5 119 f;
#X obj 30 119 + 1;
#X obj 5 178 bng 15 250 50 0 empty empty empty 17 7 0 10 -262144 -1
-1;
#X obj 5 159 sel 0;
#X floatatom 50 156 5 0 0 0 - - -, f 5;
#X obj 5 139 mod 12;
#X obj 5 195 outlet mdclk;
#X connect 0 0 1 0;
#X connect 1 0 2 0;
#X connect 2 0 3 0;
#X connect 3 0 6 0;
#X connect 3 1 4 0;
#X connect 4 0 5 0;
#X connect 5 0 6 1;
#X connect 6 0 7 0;
#X connect 6 0 11 0;
#X connect 7 0 6 1;
#X connect 8 0 12 0;
#X connect 9 0 8 0;
#X connect 11 0 10 0;
#X connect 11 0 9 0;
