#N canvas 495 23 327 516 10;
#X obj 236 -126 loadbang;
#X floatatom 236 -88 5 0 0 0 - - -, f 5;
#X obj 167 -70 pack $f1 $f2;
#X obj 167 -51 line;
#X floatatom 167 -32 15 0 0 0 - - -, f 15;
#X obj 78 -290 spigot;
#X obj 111 -307 tgl 15 0 empty empty empty 17 7 0 10 -262144 -1 -1
1 1;
#X obj 111 -406 hradio 15 0 0 2 empty empty empty 0 -8 0 10 -262144
-1 -1 0;
#X obj 111 -326 unpack f f;
#X obj 111 -389 route 0 1;
#X obj 111 -370 bng 15 250 50 0 empty empty empty 17 7 0 10 -262144
-1 -1;
#X obj 136 -370 bng 15 250 50 0 empty empty empty 17 7 0 10 -262144
-1 -1;
#X obj 168 -306 tgl 15 0 empty empty empty 17 7 0 10 -262144 -1 -1
0 1;
#X obj 135 -288 spigot;
#X msg 136 -353 0 1;
#X msg 111 -353 1 0;
#X obj 19 -265 < 64;
#X obj 78 -264 > 64;
#X floatatom 78 -242 5 0 0 0 - - -, f 5;
#X floatatom 19 -243 5 0 0 0 - - -, f 5;
#X obj 117 -196 bng 15 250 50 0 empty empty empty 17 7 0 10 -262144
-1 -1;
#X obj 58 -196 bng 15 250 50 0 empty empty empty 17 7 0 10 -262144
-1 -1;
#X obj 58 -176 - 0.1;
#X obj 117 -178 + 0.1;
#X obj 19 -221 moses 1;
#X obj 78 -222 moses 1;
#X obj 135 -264 < 64;
#X obj 201 -259 > 64;
#X floatatom 201 -240 5 0 0 0 - - -, f 5;
#X floatatom 135 -245 5 0 0 0 - - -, f 5;
#X obj 240 -199 bng 15 250 50 0 empty empty empty 17 7 0 10 -262144
-1 -1;
#X obj 174 -198 bng 15 250 50 0 empty empty empty 17 7 0 10 -262144
-1 -1;
#X obj 135 -222 moses 1;
#X obj 201 -221 moses 1;
#X obj 174 -180 - 0.001;
#X obj 240 -181 + 0.001;
#X floatatom 240 -160 5 0 0 0 - - -, f 5;
#X floatatom 174 -154 5 0 0 0 - - -, f 5;
#X floatatom 117 -149 5 0 0 0 - - -, f 5;
#X floatatom 58 -153 5 0 0 0 - - -, f 5;
#X obj 117 -111 +;
#X obj 167 -111 f;
#X floatatom 167 -89 5 0 0 0 - - -, f 5;
#X msg 236 -107 250;
#X obj 167 -14 outlet;
#X obj 78 -465 inlet;
#X obj 111 -445 inlet;
#X msg 187 -461 0;
#X obj 187 -480 loadbang;
#X connect 0 0 43 0;
#X connect 1 0 2 1;
#X connect 2 0 3 0;
#X connect 3 0 4 0;
#X connect 4 0 44 0;
#X connect 5 0 16 0;
#X connect 5 0 17 0;
#X connect 6 0 5 1;
#X connect 7 0 9 0;
#X connect 8 0 6 0;
#X connect 8 1 12 0;
#X connect 9 0 10 0;
#X connect 9 1 11 0;
#X connect 10 0 15 0;
#X connect 11 0 14 0;
#X connect 12 0 13 1;
#X connect 13 0 26 0;
#X connect 13 0 27 0;
#X connect 14 0 8 0;
#X connect 15 0 8 0;
#X connect 16 0 19 0;
#X connect 17 0 18 0;
#X connect 18 0 25 0;
#X connect 19 0 24 0;
#X connect 20 0 23 0;
#X connect 21 0 22 0;
#X connect 22 0 39 0;
#X connect 23 0 38 0;
#X connect 24 1 21 0;
#X connect 25 1 20 0;
#X connect 26 0 29 0;
#X connect 27 0 28 0;
#X connect 28 0 33 0;
#X connect 29 0 32 0;
#X connect 30 0 35 0;
#X connect 31 0 34 0;
#X connect 32 1 31 0;
#X connect 33 1 30 0;
#X connect 34 0 37 0;
#X connect 35 0 36 0;
#X connect 36 0 40 0;
#X connect 37 0 40 0;
#X connect 38 0 40 0;
#X connect 39 0 40 0;
#X connect 40 0 41 0;
#X connect 41 0 40 1;
#X connect 41 0 42 0;
#X connect 42 0 2 0;
#X connect 43 0 1 0;
#X connect 45 0 5 0;
#X connect 45 0 13 0;
#X connect 46 0 7 0;
#X connect 47 0 7 0;
#X connect 48 0 47 0;
